<svg xmlns="http://www.w3.org/2000/svg" width="128" height="128" fill="none" viewBox="0 0 128 128" id="coupon">
  <path fill="#FFD84E" stroke="#000" stroke-width="5" d="M29.3639 86C26.9261 86.0096 24.957 84.001 25.0007 81.549L25.0812 77.0312C31.5736 76.2799 36.6151 70.7322 36.6151 64C36.6151 57.2678 31.5736 51.7201 25.0812 50.9688L25.0007 46.451C24.957 43.999 26.9261 41.9904 29.3639 42L64 42.137L98.6361 42C101.074 41.9904 103.043 43.999 102.999 46.451L102.92 50.8975C96.0134 51.2311 90.5156 56.9697 90.5156 64C90.5156 71.0303 96.0134 76.7689 102.92 77.1025L102.999 81.549C103.043 84.001 101.074 86.0096 98.6361 86L64 85.863L29.3639 86Z"></path>
  <path stroke="#000" stroke-dasharray="8 8" stroke-linecap="round" stroke-width="5" d="M48 42V86"></path>
  <circle cx="64.05" cy="56.937" r="3.273" stroke="#000" stroke-width="5"></circle>
  <circle cx="78.452" cy="70.683" r="3.273" stroke="#000" stroke-width="5"></circle>
  <path stroke="#000" stroke-linecap="round" stroke-width="5" d="M66.1622 73.7613L76.3393 53.8589"></path>
</svg>
