<svg xmlns="http://www.w3.org/2000/svg" width="128" height="128" fill="none" viewBox="0 0 128 128" id="discount-tag">
  <path stroke="#000" stroke-width="5" d="M40.1074 85.0185C39.3439 84.4502 39.0387 83.4513 39.3543 82.5534L39.6432 81.7313C45.2215 65.8583 52.9045 50.8056 62.4867 36.9762L63.1807 35.9745C63.6422 35.3084 64.3195 34.822 65.0981 34.5973L88.2629 27.9136C90.7947 27.1831 93.4589 28.543 94.3526 31.0219L102.529 53.7027C102.804 54.465 102.808 55.2989 102.539 56.0634L102.135 57.2131C96.5567 73.0861 88.8737 88.1388 79.2915 101.968L78.7952 102.684C78.2532 103.467 77.2653 103.806 76.3571 103.521V103.521C63.3214 99.4307 51.067 93.1759 40.1074 85.0185V85.0185Z"></path>
  <path fill="#FFD84E" stroke="#000" stroke-width="5" d="M26.1829 65.5012C25.6318 64.7252 25.6495 63.6809 26.2266 62.924L26.7549 62.2311C36.9558 48.8516 48.906 36.9014 62.2855 26.7005L63.2546 25.9617C63.899 25.4703 64.6932 25.2164 65.5032 25.2428L89.6001 26.0276C92.2338 26.1134 94.3489 28.2285 94.4347 30.8622L95.2195 54.9592C95.2459 55.7691 94.992 56.5634 94.5007 57.2078L93.7618 58.1769C83.5609 71.5564 71.6108 83.5065 58.2313 93.7074L57.5383 94.2358C56.7814 94.8128 55.7372 94.8305 54.9611 94.2795C43.8218 86.3692 34.0931 76.6406 26.1829 65.5012Z"></path>
  <circle cx="82.5" cy="38.5" r="4.5" fill="#FFD84E" stroke="#000" stroke-width="5"></circle>
  <circle cx="50.805" cy="59.678" r="3.284" stroke="#000" stroke-width="5" transform="rotate(-45 50.805 59.678)"></circle>
  <circle cx="70.777" cy="59.213" r="3.284" stroke="#000" stroke-width="5" transform="rotate(-45 70.777 59.213)"></circle>
  <path stroke="#000" stroke-linecap="round" stroke-width="5" d="M64.2409 70.1166L57.3406 48.7748"></path>
  <path stroke="#000" stroke-width="5" d="M94.7073 39.2058C100.219 35.9936 103.336 31.0717 101.669 28.2125C100.003 25.3533 94.184 25.6394 88.6726 28.8516C83.1612 32.0638 80.0443 36.9856 81.7107 39.8449C82 42 84.5798 41.2123 85 41.5"></path>
</svg>
