<svg xmlns="http://www.w3.org/2000/svg" width="128" height="128" fill="none" viewBox="0 0 128 128" id="shopping-cart">
  <path fill="#FFD84E" d="M40.5164 40.043H97.456C100.752 40.043 103.146 43.1766 102.28 46.3569L97.8046 62.7902C97.2597 64.7906 95.5369 66.2472 93.4738 66.4519L47.6165 71L40.5164 40.043Z"></path>
  <path stroke="#000" stroke-linecap="round" stroke-width="5" d="M40.5164 40.043H97.456C100.752 40.043 103.147 43.1766 102.28 46.3569L97.8045 62.7902C97.2597 64.7906 95.5369 66.2472 93.4738 66.4519L47.6165 71 40.5164 40.043zM40.5164 40.043L38.219 29.4411C37.7206 27.1411 35.6858 25.5 33.3324 25.5H25.5M47.2136 71C43.7819 71 41 73.9101 41 77.5 41 81.0899 43.7819 84 47.2136 84H102"></path>
  <circle cx="85" cy="97" r="5" stroke="#000" stroke-width="5"></circle>
  <circle cx="55" cy="97" r="5" stroke="#000" stroke-width="5"></circle>
</svg>
