<svg xmlns="http://www.w3.org/2000/svg" width="128" height="128" fill="none" viewBox="0 0 128 128" id="transaction">
  <circle cx="64" cy="64" r="24" fill="#FFD84E" stroke="#000" stroke-width="5"></circle>
  <path stroke="#000" stroke-linecap="round" stroke-width="5" d="M25 63C25 84.5391 42.4609 102 64 102 80.2136 102 94.1163 92.1061 100 78.0264M103 64C103 42.4609 85.5391 25 64 25 47.7864 25 33.8837 34.8939 28 48.9736"></path>
  <path fill="#000" stroke="#000" stroke-width=".3" d="M72.3823 55.5024L72.3824 55.5025L72.3888 55.4964C72.7966 55.1005 73.0062 54.6308 73.0062 54.0935C73.0062 53.4667 72.7268 52.9331 72.19 52.4981C70.6211 51.1407 68.5592 50.375 66.0162 50.1907V48.6654C66.0162 48.0903 65.8848 47.6309 65.5956 47.3151C65.304 46.9967 64.8762 46.85 64.3411 46.85C63.8061 46.85 63.3782 46.9967 63.0867 47.3151C62.7974 47.6309 62.6661 48.0903 62.6661 48.6654V50.2611C60.4599 50.5636 58.6931 51.3073 57.3774 52.502L57.3774 52.502L57.3756 52.5037C56.0725 53.7265 55.4219 55.2885 55.4219 57.1776C55.4219 58.5223 55.7906 59.6478 56.537 60.5428C57.2728 61.4251 58.2026 62.117 59.3233 62.6191C60.3976 63.1004 61.5119 63.4654 62.6661 63.7141V71.1137C60.96 70.701 59.6553 69.9898 58.7397 68.9886C58.5527 68.7204 58.2962 68.5396 57.9763 68.448C57.7042 68.3181 57.4104 68.2537 57.097 68.2537C56.5055 68.2537 55.9826 68.4758 55.5338 68.9102C55.0846 69.3038 54.85 69.774 54.85 70.3159C54.85 70.8035 55.0105 71.2654 55.3232 71.699L55.3231 71.699L55.3261 71.7029C56.1062 72.7125 57.1655 73.5083 58.4983 74.0925L58.4983 74.0926L58.502 74.0941C59.7906 74.6186 61.1789 74.9663 62.6661 75.1379V78.3346C62.6661 78.9097 62.7974 79.3691 63.0867 79.6849C63.3782 80.0033 63.8061 80.15 64.3411 80.15C64.8762 80.15 65.304 80.0033 65.5956 79.6849C65.8848 79.3691 66.0162 78.9097 66.0162 78.3346V75.2026C68.3919 74.9788 70.3268 74.2339 71.8102 72.9586L71.8104 72.9584C73.3685 71.614 74.15 69.9072 74.15 67.8486C74.15 66.1348 73.6757 64.7585 72.7123 63.7376C71.8069 62.7336 70.7076 61.9807 69.4163 61.4792C68.2252 61.0008 67.0918 60.6371 66.0162 60.3887V54.0789C67.3174 54.2604 68.4632 54.7564 69.457 55.5667L69.4647 55.5729L69.473 55.5781C69.9585 55.878 70.4514 56.0322 70.9498 56.0322C71.4938 56.0322 71.9735 55.8551 72.3823 55.5024ZM68.6913 70.1406L68.6913 70.1406L68.6881 70.1435C68.0288 70.7458 67.1417 71.139 66.0162 71.3146V64.4033C67.0635 64.6847 67.9368 65.0731 68.6396 65.5658L68.6396 65.5659L68.6428 65.5679C69.4027 66.0727 69.7831 66.8053 69.7831 67.7869C69.7831 68.7292 69.4216 69.5105 68.6913 70.1406ZM59.7888 57.1159C59.7888 56.3072 60.0414 55.6697 60.5376 55.188C61.0092 54.7302 61.7134 54.4011 62.6661 54.2123V59.6302C61.7522 59.3588 61.0496 59.0545 60.5517 58.7206C60.0441 58.3403 59.7888 57.8116 59.7888 57.1159Z"></path>
  <path fill="#000" d="M104.299 71.75C103.722 72.75 102.278 72.75 101.701 71.75L96.5048 62.75C95.9275 61.75 96.6491 60.5 97.8038 60.5L108.196 60.5C109.351 60.5 110.073 61.75 109.495 62.75L104.299 71.75zM23.701 55.25C24.2783 54.25 25.7217 54.25 26.299 55.25L31.4952 64.25C32.0725 65.25 31.3509 66.5 30.1962 66.5L19.8038 66.5C18.6491 66.5 17.9275 65.25 18.5048 64.25L23.701 55.25z"></path>
</svg>
